<svg width="286" height="94" viewBox="0 0 286 94" fill="none" xmlns="http://www.w3.org/2000/svg">
<g clip-path="url(#clip0_703_10)">
<path d="M71.5223 0.75H5.84787C2.82529 0.75 0.375 3.20968 0.375 6.24384V87.5527C0.375 90.5869 2.82529 93.0466 5.84787 93.0466H71.5223C74.5449 93.0466 76.9952 90.5869 76.9952 87.5527V6.24384C76.9952 3.20968 74.5449 0.75 71.5223 0.75Z" fill="#2521E7"/>
<path d="M13.7428 78.83V67.1619C20.6844 69.7548 28.5303 71.0513 37.28 71.0513C47.9025 71.0513 53.214 67.4861 53.214 60.3556C53.214 55.1696 49.953 52.5769 43.4308 52.5769H32.5821C18.4077 52.5769 11.3213 46.0947 11.3213 33.1296C11.3213 18.8687 21.411 11.7375 41.5917 11.7375C49.3407 11.7375 56.6864 12.8719 63.6279 15.1408V26.8089C56.6862 24.216 49.3406 22.9195 41.5917 22.9195C29.9681 22.9195 24.1562 26.3227 24.1562 33.129C24.1562 38.315 26.9652 40.9077 32.5833 40.9077H43.4319C58.5101 40.9077 66.05 47.3899 66.05 60.3549C66.05 74.9401 56.4606 82.2332 37.2823 82.2332C28.5322 82.2332 20.6866 81.0989 13.7451 78.83H13.7428Z" fill="white"/>
<path d="M103 28.9317C107.11 28.9317 110.381 29.8767 112.813 31.7666C115.245 33.6565 116.461 36.334 116.461 39.7989H109.307C109.213 38.0979 108.64 36.8222 107.589 35.9717C106.538 35.1213 104.914 34.696 102.717 34.696C101.18 34.696 99.9402 35.0347 98.9988 35.7119C98.0575 36.3891 97.5868 37.3261 97.5868 38.5232C97.5868 39.4997 97.877 40.2084 98.4575 40.6494C99.038 41.0903 99.8617 41.4841 100.929 41.8305C101.996 42.177 103.863 42.681 106.53 43.3425C109.322 44.0355 111.472 44.7915 112.978 45.6104C114.484 46.4294 115.63 47.4768 116.414 48.7525C117.199 50.0282 117.591 51.5953 117.591 53.4537C117.591 55.5956 117.026 57.5013 115.896 59.1708C114.767 60.8404 113.119 62.1081 110.954 62.9744C108.789 63.8407 106.341 64.2737 103.612 64.2737C99.4381 64.2737 96.01 63.2263 93.3271 61.1317C90.6442 59.037 89.3027 56.1625 89.3027 52.5088V52.2725H96.4571C96.4571 54.257 97.1318 55.7925 98.4811 56.8793C99.8304 57.966 101.619 58.5094 103.847 58.5094C105.824 58.5094 107.416 58.155 108.624 57.4463C109.832 56.7375 110.436 55.6901 110.436 54.3042C110.436 53.3908 110.107 52.6191 109.448 51.989C108.789 51.359 107.91 50.8472 106.812 50.4534C105.714 50.0597 103.863 49.5636 101.258 48.9651C98.2457 48.2091 96.049 47.4059 94.6685 46.5554C93.288 45.7049 92.2367 44.6734 91.5149 43.4606C90.7932 42.2479 90.4324 40.7911 90.4324 39.0901C90.4324 36.9796 91.0364 35.1369 92.2445 33.562C93.4526 31.9871 95.0294 30.8216 96.9749 30.0656C98.9203 29.3096 100.929 28.9317 103 28.9317ZM137.03 28.9317C141.988 28.9317 145.981 30.5854 149.009 33.8928C152.037 37.2002 153.551 41.4843 153.551 46.7445C153.551 51.879 152.029 56.0841 148.985 59.3599C145.942 62.6356 141.957 64.2737 137.03 64.2737C132.072 64.2737 128.079 62.6358 125.051 59.3599C122.023 56.084 120.509 51.879 120.509 46.7445C120.509 41.5154 122.031 37.2394 125.075 33.9164C128.119 30.5934 132.103 28.9317 137.03 28.9317ZM127.899 46.7445C127.899 50.1464 128.699 52.8788 130.299 54.9421C131.9 57.0055 134.143 58.0369 137.03 58.0369C139.854 58.0369 142.082 57.0211 143.714 54.9894C145.346 52.9577 146.161 50.2092 146.161 46.7445C146.161 43.122 145.353 40.287 143.737 38.2397C142.121 36.1924 139.87 35.1685 136.983 35.1685C134.159 35.1685 131.939 36.1923 130.323 38.2397C128.707 40.2871 127.899 43.1219 127.899 46.7445ZM182.216 29.7349V35.9717H165.977V43.7678H180.051V49.5321H165.977V63.4705H158.587V29.7349H182.216ZM211.398 29.7349V35.9717H201.326V63.4705H193.936V35.9717H183.863V29.7349H211.398ZM222.648 29.7349V63.4705H215.258V29.7349H222.648ZM252.771 29.7349V35.9717H236.533V43.7678H250.606V49.5321H236.533V63.4705H229.143V29.7349H252.771ZM261.714 29.7349L269.575 43.0591L277.388 29.7349H285.625L273.152 50.5244V63.4705H265.762V50.3354L253.383 29.7349H261.714Z" fill="#2521E7"/>
<path d="M92.6192 72.288C93.6145 72.288 94.4065 72.5168 94.9954 72.9744C95.5843 73.432 95.8786 74.0803 95.8786 74.9192H94.1463C94.1235 74.5074 93.9849 74.1985 93.7303 73.9926C93.4758 73.7867 93.0826 73.6837 92.5508 73.6837C92.1785 73.6837 91.8784 73.7657 91.6505 73.9297C91.4225 74.0936 91.3086 74.3205 91.3086 74.6104C91.3086 74.8468 91.3788 75.0184 91.5194 75.1252C91.6599 75.2319 91.8594 75.3273 92.1177 75.4112C92.376 75.4951 92.8281 75.6171 93.4739 75.7773C94.1501 75.9451 94.6706 76.1281 95.0353 76.3264C95.4 76.5247 95.6773 76.7783 95.8672 77.0872C96.0572 77.3961 96.1521 77.7755 96.1521 78.2255C96.1521 78.7441 96.0154 79.2055 95.7419 79.6098C95.4683 80.014 95.0695 80.321 94.5452 80.5307C94.021 80.7405 93.4283 80.8453 92.7673 80.8453C91.7568 80.8453 90.9268 80.5917 90.2772 80.0846C89.6275 79.5774 89.3027 78.8814 89.3027 77.9967V77.9395H91.035C91.035 78.42 91.1984 78.7918 91.5251 79.0549C91.8518 79.3181 92.2848 79.4496 92.8243 79.4496C93.303 79.4496 93.6886 79.3638 93.9811 79.1922C94.2736 79.0206 94.4198 78.767 94.4198 78.4314C94.4198 78.2102 94.3401 78.0234 94.1805 77.8709C94.021 77.7183 93.8082 77.5944 93.5423 77.4991C93.2764 77.4037 92.8281 77.2836 92.1975 77.1387C91.4681 76.9556 90.9362 76.7612 90.602 76.5552C90.2677 76.3493 90.0131 76.0995 89.8384 75.8059C89.6636 75.5122 89.5763 75.1595 89.5763 74.7477C89.5763 74.2366 89.7225 73.7905 90.015 73.4091C90.3075 73.0278 90.6893 72.7456 91.1604 72.5625C91.6315 72.3795 92.1177 72.288 92.6192 72.288ZM99.0013 72.4824V80.6509H97.212V72.4824H99.0013ZM103.093 72.4824L104.996 78.0997H105.019L106.819 72.4824H109.338V80.6509H107.663V74.862H107.64L105.646 80.6509H104.267L102.272 74.9192H102.249V80.6509H100.574V72.4824H103.093ZM114.592 72.4824C115.458 72.4824 116.142 72.7189 116.643 73.1918C117.145 73.6646 117.396 74.3015 117.396 75.1023C117.396 75.9107 117.145 76.5495 116.643 77.0186C116.142 77.4876 115.462 77.7221 114.603 77.7221H112.7V80.6509H110.911V72.4824H114.592ZM114.125 76.3264C114.641 76.3264 115.027 76.2311 115.281 76.0404C115.536 75.8497 115.663 75.537 115.663 75.1023C115.663 74.6828 115.54 74.3739 115.293 74.1756C115.046 73.9773 114.66 73.8782 114.136 73.8782H112.7V76.3264H114.125ZM120.302 72.4824V79.1407H124.268V80.6509H118.512V72.4824H120.302ZM127.06 72.4824V80.6509H125.271V72.4824H127.06ZM134.354 72.4824V73.9926H130.422V75.8802H133.83V77.276H130.422V80.6509H128.633V72.4824H134.354ZM136.519 72.4824L138.422 75.7086L140.314 72.4824H142.309L139.289 77.5162V80.6509H137.499V77.4704L134.502 72.4824H136.519ZM144.782 72.4824V80.6509H142.993V72.4824H144.782ZM148.132 72.4824L151.529 77.9624H151.551V72.4824H153.227V80.6509H151.438L148.053 75.1824H148.03V80.6509H146.355V72.4824H148.132ZM158.446 72.288C159.373 72.288 160.16 72.5587 160.806 73.1002C161.451 73.6417 161.808 74.332 161.877 75.1709H160.167C160.061 74.7133 159.856 74.3701 159.552 74.1413C159.248 73.9125 158.88 73.7981 158.446 73.7981C157.747 73.7981 157.204 74.0517 156.817 74.5589C156.429 75.0661 156.236 75.7467 156.236 76.601C156.236 77.44 156.433 78.1054 156.828 78.5973C157.223 79.0893 157.763 79.3352 158.446 79.3352C159.617 79.3352 160.262 78.7479 160.384 77.5734H158.583V76.2349H162.002V80.6509H160.863L160.68 79.7242C160.11 80.4717 159.366 80.8454 158.446 80.8454C157.246 80.8454 156.279 80.4487 155.546 79.6556C154.813 78.8624 154.446 77.8442 154.446 76.601C154.446 75.3349 154.811 74.2995 155.54 73.4949C156.27 72.6903 157.238 72.288 158.446 72.288ZM172.647 72.4824V73.9926H170.208V80.6509H168.419V73.9926H165.98V72.4824H172.647ZM179.667 72.4824V73.9926H175.371V75.743H179.314V77.1387H175.371V79.1407H179.758V80.6509H173.581V72.4824H179.667ZM184.613 72.288C185.563 72.288 186.361 72.5568 187.007 73.0945C187.652 73.6322 188.025 74.3435 188.123 75.2281H186.391C186.33 74.8239 186.129 74.4845 185.787 74.2099C185.445 73.9354 185.054 73.7981 184.613 73.7981C183.914 73.7981 183.371 74.0498 182.984 74.5532C182.596 75.0565 182.402 75.7392 182.402 76.601C182.402 77.44 182.598 78.1054 182.989 78.5973C183.381 79.0893 183.922 79.3352 184.613 79.3352C185.13 79.3352 185.548 79.177 185.867 78.8605C186.186 78.5439 186.384 78.0921 186.46 77.5048H188.192C188.101 78.542 187.73 79.3581 187.081 79.953C186.431 80.5479 185.609 80.8454 184.613 80.8454C183.42 80.8454 182.456 80.4507 181.719 79.6613C180.981 78.8719 180.613 77.8518 180.613 76.601C180.613 75.3349 180.978 74.2995 181.707 73.4949C182.437 72.6903 183.405 72.288 184.613 72.288ZM191.201 72.4824V75.6171H194.494V72.4824H196.283V80.6509H194.494V77.1272H191.201V80.6509H189.411V72.4824H191.201ZM199.634 72.4824L203.03 77.9624H203.053V72.4824H204.728V80.6509H202.939L199.554 75.1824H199.532V80.6509H197.856V72.4824H199.634ZM209.948 72.288C211.149 72.288 212.115 72.6884 212.849 73.4892C213.582 74.29 213.948 75.3273 213.948 76.601C213.948 77.8442 213.58 78.8624 212.843 79.6556C212.106 80.4487 211.141 80.8454 209.948 80.8454C208.748 80.8454 207.781 80.4487 207.048 79.6556C206.315 78.8624 205.948 77.8442 205.948 76.601C205.948 75.3349 206.316 74.2995 207.053 73.4949C207.79 72.6903 208.755 72.288 209.948 72.288ZM207.737 76.601C207.737 77.4247 207.931 78.0863 208.318 78.5859C208.706 79.0855 209.249 79.3352 209.948 79.3352C210.632 79.3352 211.171 79.0893 211.566 78.5973C211.962 78.1054 212.159 77.4399 212.159 76.601C212.159 75.7239 211.963 75.0374 211.572 74.5417C211.181 74.046 210.636 73.7981 209.937 73.7981C209.253 73.7981 208.715 74.046 208.324 74.5417C207.933 75.0375 207.737 75.7238 207.737 76.601ZM216.957 72.4824V79.1407H220.923V80.6509H215.168V72.4824H216.957ZM225.573 72.288C226.773 72.288 227.74 72.6884 228.473 73.4892C229.207 74.29 229.573 75.3273 229.573 76.601C229.573 77.8442 229.205 78.8624 228.468 79.6556C227.731 80.4487 226.766 80.8454 225.573 80.8454C224.373 80.8454 223.406 80.4487 222.673 79.6556C221.939 78.8624 221.573 77.8442 221.573 76.601C221.573 75.3349 221.941 74.2995 222.678 73.4949C223.415 72.6903 224.38 72.288 225.573 72.288ZM223.362 76.601C223.362 77.4247 223.556 78.0863 223.943 78.5859C224.331 79.0855 224.874 79.3352 225.573 79.3352C226.257 79.3352 226.796 79.0893 227.191 78.5973C227.586 78.1054 227.784 77.4399 227.784 76.601C227.784 75.7239 227.588 75.0374 227.197 74.5417C226.806 74.046 226.261 73.7981 225.562 73.7981C224.878 73.7981 224.34 74.046 223.949 74.5417C223.558 75.0375 223.362 75.7238 223.362 76.601ZM234.44 72.288C235.367 72.288 236.153 72.5587 236.799 73.1002C237.445 73.6417 237.802 74.332 237.87 75.1709H236.161C236.054 74.7133 235.849 74.3701 235.545 74.1413C235.241 73.9125 234.873 73.7981 234.44 73.7981C233.741 73.7981 233.197 74.0517 232.81 74.5589C232.422 75.0661 232.229 75.7467 232.229 76.601C232.229 77.44 232.426 78.1054 232.821 78.5973C233.216 79.0893 233.756 79.3352 234.44 79.3352C235.61 79.3352 236.255 78.7479 236.377 77.5734H234.576V76.2349H237.995V80.6509H236.856L236.673 79.7242C236.104 80.4717 235.359 80.8454 234.44 80.8454C233.239 80.8454 232.272 80.4487 231.539 79.6556C230.806 78.8624 230.439 77.8442 230.439 76.601C230.439 75.3349 230.804 74.2995 231.533 73.4949C232.263 72.6903 233.232 72.288 234.44 72.288ZM240.571 72.4824L242.474 75.7086L244.366 72.4824H246.361L243.34 77.5162V80.6509H241.551V77.4704L238.554 72.4824H240.571Z" fill="#111A2E"/>
</g>
<defs>
<clipPath id="clip0_703_10">
<rect width="285.25" height="92.625" fill="white" transform="translate(0.375 0.75)"/>
</clipPath>
</defs>
</svg>
