<svg width="1531" height="1531" viewBox="0 0 1531 1531" fill="none" xmlns="http://www.w3.org/2000/svg">
<circle cx="765.5" cy="765.5" r="765.5" fill="#2521E7"/>
<path d="M416.092 1197.74V1039.37C511.671 1074.56 619.701 1092.16 740.174 1092.16C886.435 1092.16 959.569 1043.77 959.569 946.981C959.569 876.589 914.669 841.396 824.864 841.396H675.49C480.323 841.396 382.75 753.41 382.75 577.429C382.75 383.858 521.675 287.062 799.542 287.062C906.238 287.062 1007.38 302.46 1102.96 333.256V491.634C1007.38 456.439 906.236 438.841 799.542 438.841C639.497 438.841 559.473 485.035 559.473 577.42C559.473 647.812 598.15 683.004 675.506 683.004H824.88C1032.49 683.004 1136.31 770.99 1136.31 946.972C1136.31 1144.94 1004.27 1243.94 740.206 1243.94C619.726 1243.94 511.7 1228.54 416.123 1197.74H416.092Z" fill="white"/>
</svg>
